 <svg width="21" height="20" viewBox="0 0 21 20" fill="none" xmlns="http://www.w3.org/2000/svg">
   <g clip-path="url(#clip0_141_12644)">
   <path d="M14.8535 5.62891C14.8535 5.28516 14.5723 5.00195 14.2266 5.00195H6.23438C5.89063 5.00195 5.60742 5.2832 5.60742 5.62891C5.60742 5.97266 5.88867 6.25586 6.23438 6.25586H14.2266C14.5723 6.25586 14.8535 5.97266 14.8535 5.62891ZM6.23438 8.75C5.89063 8.75 5.60742 9.03125 5.60742 9.37695C5.60742 9.7207 5.88867 10.0039 6.23438 10.0039H9.9668C10.3125 10.0039 10.5957 9.72266 10.5938 9.37695C10.5938 9.0332 10.3125 8.75 9.9668 8.75H6.23438Z" fill="#4E5969"/>
   <path d="M5.60742 13.377C5.60742 13.0312 5.89063 12.75 6.23438 12.75H9.9668C10.3125 12.75 10.5938 13.0332 10.5938 13.377C10.5957 13.7227 10.3125 14.0039 9.9668 14.0039H6.23438C5.88867 14.0039 5.60742 13.7207 5.60742 13.377Z" fill="#4E5969"/>
   <path d="M11.5318 17.4383H11.5312H4.57031C3.91043 17.4383 3.37031 16.8982 3.37031 16.2383V3.76562C3.37031 3.10574 3.91043 2.56562 4.57031 2.56562H15.2598C15.9197 2.56562 16.4598 3.10574 16.4598 3.76562V7.98438V8.03438H16.4673C16.492 8.38544 16.7856 8.66328 17.1445 8.66328C17.5197 8.66328 17.8234 8.35975 17.8234 7.98633C17.8234 7.96239 17.8216 7.94032 17.8198 7.91913L17.8195 7.91588V3.74609C17.8195 3.05328 17.6839 2.41701 17.3695 1.95245C17.0533 1.48508 16.559 1.19609 15.8555 1.19609H4.64453C3.24192 1.19609 2.09453 2.34348 2.09453 3.74609V16.2422C2.09453 17.6448 3.24192 18.7922 4.64453 18.7922H11.5234C11.8986 18.7922 12.2023 18.4887 12.2023 18.1152C12.2023 17.744 11.9028 17.4425 11.5318 17.4383Z" fill="#1BBEF7" stroke="#1BBEF7" stroke-width="0.1"/>
   <path d="M13.0816 16.2936L14.4604 15.6396L17.0615 12.5427L17.3118 12.2375L17.8389 11.61C17.8408 11.6079 17.8422 11.6056 17.8431 11.603C17.844 11.6004 17.8443 11.5976 17.8441 11.5949C17.8439 11.5921 17.8432 11.5895 17.8419 11.587C17.8406 11.5846 17.8389 11.5824 17.8367 11.5807L16.8936 10.7906C16.8916 10.7889 16.8891 10.7877 16.8866 10.7869C16.884 10.7862 16.8813 10.786 16.8786 10.7863C16.8759 10.7865 16.8732 10.7873 16.8707 10.7886C16.8683 10.7899 16.8662 10.7917 16.8644 10.7938L16.3377 11.4208C16.3317 11.4303 16.3257 11.4399 16.3199 11.4495L13.4863 14.8235L13.0816 16.2936ZM15.0185 16.1847C14.9453 16.2768 14.8442 16.3427 14.7305 16.3725L12.825 17.276L12.7554 17.2821C12.6111 17.2947 12.4676 17.2495 12.3565 17.1563C12.3014 17.1101 12.2561 17.0534 12.2231 16.9894C12.1901 16.9255 12.1701 16.8557 12.1642 16.784L12.1587 16.7155L12.7177 14.6853C12.7273 14.5694 12.7736 14.4596 12.85 14.3719L15.6895 10.9912C15.7055 10.9671 15.723 10.9438 15.7418 10.9212L16.2684 10.2944C16.3357 10.2138 16.4183 10.1474 16.5113 10.0988C16.6044 10.0503 16.7061 10.0206 16.8107 10.0114C16.9152 10.0021 17.0206 10.0135 17.1207 10.045C17.2208 10.0765 17.3137 10.1275 17.394 10.195L18.3368 10.985C18.4989 11.1211 18.6004 11.3161 18.6188 11.527C18.6372 11.7379 18.571 11.9475 18.4349 12.1096L18.1544 12.4437L15.0185 16.1847Z" fill="#4E5969"/>
   </g>
   <defs>
   <clipPath id="clip0_141_12644">
   <rect width="20" height="20" fill="white" transform="translate(0.25)"/>
   </clipPath>
   </defs>
 </svg>